<mxfile host="65bd71144e">
    <diagram name="Page-1" id="ssyhXE8zXFuyx1_GPbaQ">
        <mxGraphModel dx="1932" dy="492" grid="1" gridSize="10" guides="1" tooltips="1" connect="1" arrows="1" fold="1" page="1" pageScale="1" pageWidth="827" pageHeight="1169" math="0" shadow="0">
            <root>
                <mxCell id="0"/>
                <mxCell id="1" parent="0"/>
                <mxCell id="mAsq_2kWWvZle1EJRHJe-20" value="" style="swimlane;startSize=0;fillStyle=solid;strokeColor=none;" parent="1" vertex="1">
                    <mxGeometry x="-200" y="120" width="780" height="420" as="geometry">
                        <mxRectangle x="-200" y="120" width="50" height="40" as="alternateBounds"/>
                    </mxGeometry>
                </mxCell>
                <mxCell id="w02jJaq6AMjeTlA0ncgU-1" value="Web Client" style="image;aspect=fixed;perimeter=ellipsePerimeter;html=1;align=center;shadow=0;dashed=0;spacingTop=3;image=img/lib/active_directory/web_server.svg;" parent="mAsq_2kWWvZle1EJRHJe-20" vertex="1">
                    <mxGeometry x="8" y="186.5" width="60" height="75" as="geometry"/>
                </mxCell>
                <mxCell id="w02jJaq6AMjeTlA0ncgU-2" value="* = Optional Resources" style="text;html=1;align=left;verticalAlign=middle;rounded=0;fontStyle=1;fontSize=12;whiteSpace=wrap;" parent="mAsq_2kWWvZle1EJRHJe-20" vertex="1">
                    <mxGeometry x="88" y="392" width="680" height="30" as="geometry"/>
                </mxCell>
                <mxCell id="YcPO-NXU68Z41jzEnlzY-1" value="AWS Cloud" style="points=[[0,0],[0.25,0],[0.5,0],[0.75,0],[1,0],[1,0.25],[1,0.5],[1,0.75],[1,1],[0.75,1],[0.5,1],[0.25,1],[0,1],[0,0.75],[0,0.5],[0,0.25]];outlineConnect=0;gradientColor=none;html=1;whiteSpace=wrap;fontSize=12;fontStyle=0;container=1;pointerEvents=0;collapsible=0;recursiveResize=0;shape=mxgraph.aws4.group;grIcon=mxgraph.aws4.group_aws_cloud_alt;strokeColor=#232F3E;fillColor=none;verticalAlign=top;align=left;spacingLeft=30;fontColor=#232F3E;dashed=0;" parent="mAsq_2kWWvZle1EJRHJe-20" vertex="1">
                    <mxGeometry x="88" y="10" width="680" height="380" as="geometry"/>
                </mxCell>
                <mxCell id="YcPO-NXU68Z41jzEnlzY-9" value="" style="edgeStyle=orthogonalEdgeStyle;rounded=0;orthogonalLoop=1;jettySize=auto;html=1;" parent="YcPO-NXU68Z41jzEnlzY-1" source="YcPO-NXU68Z41jzEnlzY-3" target="YcPO-NXU68Z41jzEnlzY-8" edge="1">
                    <mxGeometry relative="1" as="geometry"/>
                </mxCell>
                <mxCell id="mAsq_2kWWvZle1EJRHJe-18" style="edgeStyle=orthogonalEdgeStyle;rounded=0;orthogonalLoop=1;jettySize=auto;html=1;startArrow=classic;startFill=1;" parent="YcPO-NXU68Z41jzEnlzY-1" source="YcPO-NXU68Z41jzEnlzY-3" target="mAsq_2kWWvZle1EJRHJe-17" edge="1">
                    <mxGeometry relative="1" as="geometry"/>
                </mxCell>
                <mxCell id="YcPO-NXU68Z41jzEnlzY-3" value="CloudFront" style="sketch=0;points=[[0,0,0],[0.25,0,0],[0.5,0,0],[0.75,0,0],[1,0,0],[0,1,0],[0.25,1,0],[0.5,1,0],[0.75,1,0],[1,1,0],[0,0.25,0],[0,0.5,0],[0,0.75,0],[1,0.25,0],[1,0.5,0],[1,0.75,0]];outlineConnect=0;fontColor=#232F3E;fillColor=#8C4FFF;strokeColor=#ffffff;dashed=0;verticalLabelPosition=bottom;verticalAlign=top;align=center;html=1;fontSize=12;fontStyle=0;aspect=fixed;shape=mxgraph.aws4.resourceIcon;resIcon=mxgraph.aws4.cloudfront;" parent="YcPO-NXU68Z41jzEnlzY-1" vertex="1">
                    <mxGeometry x="40" y="184" width="60" height="60" as="geometry"/>
                </mxCell>
                <mxCell id="YcPO-NXU68Z41jzEnlzY-7" value="" style="edgeStyle=orthogonalEdgeStyle;rounded=0;orthogonalLoop=1;jettySize=auto;html=1;startArrow=classic;startFill=1;" parent="YcPO-NXU68Z41jzEnlzY-1" source="YcPO-NXU68Z41jzEnlzY-6" target="YcPO-NXU68Z41jzEnlzY-3" edge="1">
                    <mxGeometry relative="1" as="geometry"/>
                </mxCell>
                <mxCell id="YcPO-NXU68Z41jzEnlzY-6" value="WAF" style="sketch=0;points=[[0,0,0],[0.25,0,0],[0.5,0,0],[0.75,0,0],[1,0,0],[0,1,0],[0.25,1,0],[0.5,1,0],[0.75,1,0],[1,1,0],[0,0.25,0],[0,0.5,0],[0,0.75,0],[1,0.25,0],[1,0.5,0],[1,0.75,0]];outlineConnect=0;fontColor=#232F3E;fillColor=#DD344C;strokeColor=#ffffff;dashed=0;verticalLabelPosition=top;verticalAlign=bottom;align=center;html=1;fontSize=12;fontStyle=0;aspect=fixed;shape=mxgraph.aws4.resourceIcon;resIcon=mxgraph.aws4.waf;labelPosition=center;" parent="YcPO-NXU68Z41jzEnlzY-1" vertex="1">
                    <mxGeometry x="40" y="84" width="60" height="60" as="geometry"/>
                </mxCell>
                <mxCell id="YcPO-NXU68Z41jzEnlzY-8" value="HTTP API&lt;div&gt;Gateway&lt;/div&gt;" style="sketch=0;points=[[0,0,0],[0.25,0,0],[0.5,0,0],[0.75,0,0],[1,0,0],[0,1,0],[0.25,1,0],[0.5,1,0],[0.75,1,0],[1,1,0],[0,0.25,0],[0,0.5,0],[0,0.75,0],[1,0.25,0],[1,0.5,0],[1,0.75,0]];outlineConnect=0;fontColor=#232F3E;fillColor=#E7157B;strokeColor=#ffffff;dashed=0;verticalLabelPosition=bottom;verticalAlign=top;align=center;html=1;fontSize=12;fontStyle=0;aspect=fixed;shape=mxgraph.aws4.resourceIcon;resIcon=mxgraph.aws4.api_gateway;" parent="YcPO-NXU68Z41jzEnlzY-1" vertex="1">
                    <mxGeometry x="140" y="184" width="60" height="60" as="geometry"/>
                </mxCell>
                <mxCell id="YcPO-NXU68Z41jzEnlzY-10" value="VPC&lt;div&gt;Link&lt;/div&gt;" style="sketch=0;outlineConnect=0;fontColor=#232F3E;gradientColor=none;fillColor=#8C4FFF;strokeColor=none;dashed=0;verticalLabelPosition=bottom;verticalAlign=top;align=center;html=1;fontSize=10;fontStyle=0;aspect=fixed;pointerEvents=1;shape=mxgraph.aws4.elastic_network_interface;" parent="YcPO-NXU68Z41jzEnlzY-1" vertex="1">
                    <mxGeometry x="227" y="201.5" width="25" height="25" as="geometry"/>
                </mxCell>
                <mxCell id="MEcsz4AJAZuNsENono8n-10" value="Lambda AuthZ" style="sketch=0;points=[[0,0,0],[0.25,0,0],[0.5,0,0],[0.75,0,0],[1,0,0],[0,1,0],[0.25,1,0],[0.5,1,0],[0.75,1,0],[1,1,0],[0,0.25,0],[0,0.5,0],[0,0.75,0],[1,0.25,0],[1,0.5,0],[1,0.75,0]];outlineConnect=0;fontColor=#232F3E;fillColor=#ED7100;strokeColor=#ffffff;dashed=0;verticalLabelPosition=top;verticalAlign=bottom;align=center;html=1;fontSize=12;fontStyle=0;aspect=fixed;shape=mxgraph.aws4.resourceIcon;resIcon=mxgraph.aws4.lambda;labelPosition=center;" parent="YcPO-NXU68Z41jzEnlzY-1" vertex="1">
                    <mxGeometry x="140" y="84" width="60" height="60" as="geometry"/>
                </mxCell>
                <mxCell id="MEcsz4AJAZuNsENono8n-11" style="edgeStyle=orthogonalEdgeStyle;rounded=0;orthogonalLoop=1;jettySize=auto;html=1;entryX=0.5;entryY=0;entryDx=0;entryDy=0;entryPerimeter=0;startArrow=classic;startFill=1;" parent="YcPO-NXU68Z41jzEnlzY-1" source="MEcsz4AJAZuNsENono8n-10" target="YcPO-NXU68Z41jzEnlzY-8" edge="1">
                    <mxGeometry relative="1" as="geometry"/>
                </mxCell>
                <mxCell id="MEcsz4AJAZuNsENono8n-13" value="" style="edgeStyle=orthogonalEdgeStyle;rounded=0;orthogonalLoop=1;jettySize=auto;html=1;entryX=0;entryY=0.5;entryDx=0;entryDy=0;" parent="YcPO-NXU68Z41jzEnlzY-1" source="YcPO-NXU68Z41jzEnlzY-8" target="MEcsz4AJAZuNsENono8n-12" edge="1">
                    <mxGeometry relative="1" as="geometry">
                        <mxPoint x="120" y="374" as="sourcePoint"/>
                        <mxPoint x="320" y="374" as="targetPoint"/>
                    </mxGeometry>
                </mxCell>
                <mxCell id="2" style="edgeStyle=none;html=1;" edge="1" parent="YcPO-NXU68Z41jzEnlzY-1" source="MEcsz4AJAZuNsENono8n-12" target="mAsq_2kWWvZle1EJRHJe-7">
                    <mxGeometry relative="1" as="geometry"/>
                </mxCell>
                <mxCell id="3" style="edgeStyle=none;html=1;" edge="1" parent="YcPO-NXU68Z41jzEnlzY-1" source="MEcsz4AJAZuNsENono8n-12" target="mAsq_2kWWvZle1EJRHJe-8">
                    <mxGeometry relative="1" as="geometry"/>
                </mxCell>
                <mxCell id="MEcsz4AJAZuNsENono8n-12" value="CloudMap" style="sketch=0;points=[[0,0,0],[0.25,0,0],[0.5,0,0],[0.75,0,0],[1,0,0],[0,1,0],[0.25,1,0],[0.5,1,0],[0.75,1,0],[1,1,0],[0,0.25,0],[0,0.5,0],[0,0.75,0],[1,0.25,0],[1,0.5,0],[1,0.75,0]];outlineConnect=0;fontColor=#232F3E;fillColor=#8C4FFF;strokeColor=#ffffff;dashed=0;verticalLabelPosition=bottom;verticalAlign=top;align=center;html=1;fontSize=12;fontStyle=0;aspect=fixed;shape=mxgraph.aws4.resourceIcon;resIcon=mxgraph.aws4.cloud_map;" parent="YcPO-NXU68Z41jzEnlzY-1" vertex="1">
                    <mxGeometry x="280" y="184" width="60" height="60" as="geometry"/>
                </mxCell>
                <mxCell id="mAsq_2kWWvZle1EJRHJe-1" value="EFS*" style="sketch=0;points=[[0,0,0],[0.25,0,0],[0.5,0,0],[0.75,0,0],[1,0,0],[0,1,0],[0.25,1,0],[0.5,1,0],[0.75,1,0],[1,1,0],[0,0.25,0],[0,0.5,0],[0,0.75,0],[1,0.25,0],[1,0.5,0],[1,0.75,0]];outlineConnect=0;fontColor=#232F3E;fillColor=#7AA116;strokeColor=#ffffff;dashed=0;verticalLabelPosition=bottom;verticalAlign=top;align=center;html=1;fontSize=12;fontStyle=0;aspect=fixed;shape=mxgraph.aws4.resourceIcon;resIcon=mxgraph.aws4.efs_standard;" parent="YcPO-NXU68Z41jzEnlzY-1" vertex="1">
                    <mxGeometry x="600" y="183.5" width="60" height="60" as="geometry"/>
                </mxCell>
                <mxCell id="mAsq_2kWWvZle1EJRHJe-4" value="S3*" style="sketch=0;points=[[0,0,0],[0.25,0,0],[0.5,0,0],[0.75,0,0],[1,0,0],[0,1,0],[0.25,1,0],[0.5,1,0],[0.75,1,0],[1,1,0],[0,0.25,0],[0,0.5,0],[0,0.75,0],[1,0.25,0],[1,0.5,0],[1,0.75,0]];outlineConnect=0;fontColor=#232F3E;fillColor=#7AA116;strokeColor=#ffffff;dashed=0;verticalLabelPosition=top;verticalAlign=bottom;align=center;html=1;fontSize=12;fontStyle=0;aspect=fixed;shape=mxgraph.aws4.resourceIcon;resIcon=mxgraph.aws4.s3;labelPosition=center;" parent="YcPO-NXU68Z41jzEnlzY-1" vertex="1">
                    <mxGeometry x="439" y="24" width="60" height="60" as="geometry"/>
                </mxCell>
                <mxCell id="MEcsz4AJAZuNsENono8n-1" value="Service" style="fillColor=none;strokeColor=#5A6C86;dashed=1;verticalAlign=top;fontStyle=0;fontColor=#5A6C86;whiteSpace=wrap;html=1;container=0;labelPosition=center;verticalLabelPosition=bottom;align=center;" parent="YcPO-NXU68Z41jzEnlzY-1" vertex="1">
                    <mxGeometry x="383.33" y="111" width="166.67" height="205" as="geometry"/>
                </mxCell>
                <mxCell id="MEcsz4AJAZuNsENono8n-3" value="ECS" style="sketch=0;points=[[0,0,0],[0.25,0,0],[0.5,0,0],[0.75,0,0],[1,0,0],[0,1,0],[0.25,1,0],[0.5,1,0],[0.75,1,0],[1,1,0],[0,0.25,0],[0,0.5,0],[0,0.75,0],[1,0.25,0],[1,0.5,0],[1,0.75,0]];outlineConnect=0;fontColor=#232F3E;fillColor=#ED7100;strokeColor=#ffffff;dashed=0;verticalLabelPosition=top;verticalAlign=bottom;align=center;html=1;fontSize=12;fontStyle=0;aspect=fixed;shape=mxgraph.aws4.resourceIcon;resIcon=mxgraph.aws4.ecs;container=0;labelPosition=center;" parent="YcPO-NXU68Z41jzEnlzY-1" vertex="1">
                    <mxGeometry x="370" y="96" width="30" height="30" as="geometry"/>
                </mxCell>
                <mxCell id="mAsq_2kWWvZle1EJRHJe-12" style="edgeStyle=orthogonalEdgeStyle;rounded=0;orthogonalLoop=1;jettySize=auto;html=1;startArrow=classic;startFill=1;endArrow=none;" parent="YcPO-NXU68Z41jzEnlzY-1" source="MEcsz4AJAZuNsENono8n-5" target="mAsq_2kWWvZle1EJRHJe-4" edge="1">
                    <mxGeometry relative="1" as="geometry"/>
                </mxCell>
                <mxCell id="mAsq_2kWWvZle1EJRHJe-14" style="edgeStyle=orthogonalEdgeStyle;rounded=0;orthogonalLoop=1;jettySize=auto;html=1;startArrow=classic;startFill=1;" parent="YcPO-NXU68Z41jzEnlzY-1" source="MEcsz4AJAZuNsENono8n-5" target="mAsq_2kWWvZle1EJRHJe-1" edge="1">
                    <mxGeometry relative="1" as="geometry"/>
                </mxCell>
                <mxCell id="MEcsz4AJAZuNsENono8n-5" value="tileserver" style="sketch=0;outlineConnect=0;fontColor=#232F3E;gradientColor=none;fillColor=#ED7100;strokeColor=none;dashed=0;verticalLabelPosition=bottom;verticalAlign=top;align=center;html=1;fontSize=12;fontStyle=0;aspect=fixed;pointerEvents=1;shape=mxgraph.aws4.ecs_service;container=0;" parent="YcPO-NXU68Z41jzEnlzY-1" vertex="1">
                    <mxGeometry x="490" y="147.5" width="39" height="48" as="geometry"/>
                </mxCell>
                <mxCell id="MEcsz4AJAZuNsENono8n-7" value="tileserver" style="sketch=0;outlineConnect=0;fontColor=#232F3E;gradientColor=none;fillColor=#ED7100;strokeColor=none;dashed=0;verticalLabelPosition=bottom;verticalAlign=top;align=center;html=1;fontSize=12;fontStyle=0;aspect=fixed;pointerEvents=1;shape=mxgraph.aws4.ecs_service;container=0;" parent="YcPO-NXU68Z41jzEnlzY-1" vertex="1">
                    <mxGeometry x="490" y="231.5" width="39" height="48" as="geometry"/>
                </mxCell>
                <mxCell id="mAsq_2kWWvZle1EJRHJe-9" style="edgeStyle=orthogonalEdgeStyle;rounded=0;orthogonalLoop=1;jettySize=auto;html=1;" parent="YcPO-NXU68Z41jzEnlzY-1" source="mAsq_2kWWvZle1EJRHJe-7" target="MEcsz4AJAZuNsENono8n-5" edge="1">
                    <mxGeometry relative="1" as="geometry"/>
                </mxCell>
                <mxCell id="mAsq_2kWWvZle1EJRHJe-7" value="nginx" style="sketch=0;outlineConnect=0;fontColor=#232F3E;gradientColor=none;fillColor=#ED7100;strokeColor=none;dashed=0;verticalLabelPosition=bottom;verticalAlign=top;align=center;html=1;fontSize=12;fontStyle=0;aspect=fixed;pointerEvents=1;shape=mxgraph.aws4.ecs_service;container=0;" parent="YcPO-NXU68Z41jzEnlzY-1" vertex="1">
                    <mxGeometry x="400" y="147.5" width="39" height="48" as="geometry"/>
                </mxCell>
                <mxCell id="mAsq_2kWWvZle1EJRHJe-10" style="edgeStyle=orthogonalEdgeStyle;rounded=0;orthogonalLoop=1;jettySize=auto;html=1;" parent="YcPO-NXU68Z41jzEnlzY-1" source="mAsq_2kWWvZle1EJRHJe-8" target="MEcsz4AJAZuNsENono8n-7" edge="1">
                    <mxGeometry relative="1" as="geometry"/>
                </mxCell>
                <mxCell id="mAsq_2kWWvZle1EJRHJe-8" value="nginx" style="sketch=0;outlineConnect=0;fontColor=#232F3E;gradientColor=none;fillColor=#ED7100;strokeColor=none;dashed=0;verticalLabelPosition=bottom;verticalAlign=top;align=center;html=1;fontSize=12;fontStyle=0;aspect=fixed;pointerEvents=1;shape=mxgraph.aws4.ecs_service;container=0;" parent="YcPO-NXU68Z41jzEnlzY-1" vertex="1">
                    <mxGeometry x="400" y="231.5" width="39" height="48" as="geometry"/>
                </mxCell>
                <mxCell id="mAsq_2kWWvZle1EJRHJe-13" style="edgeStyle=orthogonalEdgeStyle;rounded=0;orthogonalLoop=1;jettySize=auto;html=1;entryX=0.5;entryY=1;entryDx=0;entryDy=0;entryPerimeter=0;startArrow=classic;startFill=1;endArrow=none;" parent="YcPO-NXU68Z41jzEnlzY-1" source="MEcsz4AJAZuNsENono8n-7" target="mAsq_2kWWvZle1EJRHJe-4" edge="1">
                    <mxGeometry relative="1" as="geometry">
                        <Array as="points">
                            <mxPoint x="509" y="220"/>
                            <mxPoint x="469" y="220"/>
                        </Array>
                    </mxGeometry>
                </mxCell>
                <mxCell id="mAsq_2kWWvZle1EJRHJe-15" style="edgeStyle=orthogonalEdgeStyle;rounded=0;orthogonalLoop=1;jettySize=auto;html=1;entryX=0;entryY=0.5;entryDx=0;entryDy=0;entryPerimeter=0;startArrow=classic;startFill=1;" parent="YcPO-NXU68Z41jzEnlzY-1" source="MEcsz4AJAZuNsENono8n-7" target="mAsq_2kWWvZle1EJRHJe-1" edge="1">
                    <mxGeometry relative="1" as="geometry"/>
                </mxCell>
                <mxCell id="mAsq_2kWWvZle1EJRHJe-17" value="CloudFront Function*" style="sketch=0;outlineConnect=0;fontColor=#232F3E;gradientColor=none;fillColor=#8C4FFF;strokeColor=none;dashed=0;verticalLabelPosition=bottom;verticalAlign=top;align=center;html=1;fontSize=12;fontStyle=0;aspect=fixed;pointerEvents=1;shape=mxgraph.aws4.cloudfront_functions;" parent="YcPO-NXU68Z41jzEnlzY-1" vertex="1">
                    <mxGeometry x="40" y="290" width="60" height="60" as="geometry"/>
                </mxCell>
                <mxCell id="mAsq_2kWWvZle1EJRHJe-24" style="edgeStyle=orthogonalEdgeStyle;rounded=0;orthogonalLoop=1;jettySize=auto;html=1;" parent="mAsq_2kWWvZle1EJRHJe-20" target="YcPO-NXU68Z41jzEnlzY-3" edge="1">
                    <mxGeometry relative="1" as="geometry">
                        <mxPoint x="58" y="223.99500000000012" as="sourcePoint"/>
                    </mxGeometry>
                </mxCell>
            </root>
        </mxGraphModel>
    </diagram>
</mxfile>
